REM DIRINDEX 1\2,1\3,1\4,1\5
REM DIRNAME folder01,folder02,folder03,folder04,folder05
TITLE ""
FILE "P1Q_t_0352-0361.mp3" MP3
  TRACK 01 AUDIO
    TITLE "3:cjc005_1957"
    INDEX 01 00:00:00
  TRACK 02 AUDIO
    TITLE "0:"
    INDEX 01 00:01:19
  TRACK 03 AUDIO
    TITLE "4:cjc005_1958"
    INDEX 01 00:01:46
  TRACK 04 AUDIO
    TITLE "0:"
    INDEX 01 00:02:67
  TRACK 05 AUDIO
    TITLE "5:cjc005_1959"
    INDEX 01 00:03:19
  TRACK 06 AUDIO
    TITLE "0:"
    INDEX 01 00:07:37
  TRACK 07 AUDIO
    TITLE "3:cjc005_1960"
    INDEX 01 00:08:15
  TRACK 08 AUDIO
    TITLE "0:"
    INDEX 01 00:09:22
  TRACK 09 AUDIO
    TITLE "4:cjc005_1961"
    INDEX 01 00:09:55
  TRACK 10 AUDIO
    TITLE "0:"
    INDEX 01 00:10:74
  TRACK 11 AUDIO
    TITLE "5:cjc005_1962"
    INDEX 01 00:11:27
  TRACK 12 AUDIO
    TITLE "0:"
    INDEX 01 00:15:64
  TRACK 13 AUDIO
    TITLE "3:cjc005_1963"
    INDEX 01 00:16:48
  TRACK 14 AUDIO
    TITLE "0:"
    INDEX 01 00:17:67
  TRACK 15 AUDIO
    TITLE "4:cjc005_1964"
    INDEX 01 00:18:25
  TRACK 16 AUDIO
    TITLE "0:"
    INDEX 01 00:19:58
  TRACK 17 AUDIO
    TITLE "5:cjc005_1965"
    INDEX 01 00:20:08
  TRACK 18 AUDIO
    TITLE "0:"
    INDEX 01 00:24:10
  TRACK 19 AUDIO
    TITLE "3:cjc005_1966"
    INDEX 01 00:24:65
  TRACK 20 AUDIO
    TITLE "0:"
    INDEX 01 00:25:70
  TRACK 21 AUDIO
    TITLE "4:cjc005_1967"
    INDEX 01 00:26:20
  TRACK 22 AUDIO
    TITLE "0:"
    INDEX 01 00:27:30
  TRACK 23 AUDIO
    TITLE "5:cjc005_1968"
    INDEX 01 00:27:55
  TRACK 24 AUDIO
    TITLE "0:"
    INDEX 01 00:31:67
  TRACK 25 AUDIO
    TITLE "3:cjc005_1969"
    INDEX 01 00:32:47
  TRACK 26 AUDIO
    TITLE "0:"
    INDEX 01 00:33:66
  TRACK 27 AUDIO
    TITLE "4:cjc005_1970"
    INDEX 01 00:34:12
  TRACK 28 AUDIO
    TITLE "0:"
    INDEX 01 00:35:33
  TRACK 29 AUDIO
    TITLE "5:cjc005_1971"
    INDEX 01 00:35:55
  TRACK 30 AUDIO
    TITLE "0:"
    INDEX 01 00:39:13
  TRACK 31 AUDIO
    TITLE "3:cjc005_1972"
    INDEX 01 00:39:70
  TRACK 32 AUDIO
    TITLE "0:"
    INDEX 01 00:41:24
  TRACK 33 AUDIO
    TITLE "4:cjc005_1973"
    INDEX 01 00:41:51
  TRACK 34 AUDIO
    TITLE "0:"
    INDEX 01 00:43:07
  TRACK 35 AUDIO
    TITLE "5:cjc005_1974"
    INDEX 01 00:43:27
  TRACK 36 AUDIO
    TITLE "0:"
    INDEX 01 00:47:34
  TRACK 37 AUDIO
    TITLE "3:cjc005_1975"
    INDEX 01 00:48:10
  TRACK 38 AUDIO
    TITLE "0:"
    INDEX 01 00:49:31
  TRACK 39 AUDIO
    TITLE "4:cjc005_1976"
    INDEX 01 00:49:53
  TRACK 40 AUDIO
    TITLE "0:"
    INDEX 01 00:50:58
  TRACK 41 AUDIO
    TITLE "5:cjc005_1977"
    INDEX 01 00:51:07
  TRACK 42 AUDIO
    TITLE "0:"
    INDEX 01 00:55:10
  TRACK 43 AUDIO
    TITLE "3:cjc005_1978"
    INDEX 01 00:55:55
  TRACK 44 AUDIO
    TITLE "0:"
    INDEX 01 00:56:67
  TRACK 45 AUDIO
    TITLE "4:cjc005_1979"
    INDEX 01 00:57:21
  TRACK 46 AUDIO
    TITLE "0:"
    INDEX 01 00:58:24
  TRACK 47 AUDIO
    TITLE "5:cjc005_1980"
    INDEX 01 00:58:48
  TRACK 48 AUDIO
    TITLE "0:"
    INDEX 01 01:02:48
  TRACK 49 AUDIO
    TITLE "3:cjc005_1981"
    INDEX 01 01:03:24
  TRACK 50 AUDIO
    TITLE "0:"
    INDEX 01 01:04:39
  TRACK 51 AUDIO
    TITLE "4:cjc005_1982"
    INDEX 01 01:04:70
  TRACK 52 AUDIO
    TITLE "0:"
    INDEX 01 01:06:10
  TRACK 53 AUDIO
    TITLE "5:cjc005_1983"
    INDEX 01 01:06:32
  TRACK 54 AUDIO
    TITLE "0:"
    INDEX 01 01:10:12
  TRACK 55 AUDIO
    TITLE "3:cjc005_1984"
    INDEX 01 01:11:00
  TRACK 56 AUDIO
    TITLE "0:"
    INDEX 01 01:12:26
  TRACK 57 AUDIO
    TITLE "4:cjc005_1985"
    INDEX 01 01:12:52
  TRACK 58 AUDIO
    TITLE "0:"
    INDEX 01 01:13:67
  TRACK 59 AUDIO
    TITLE "5:cjc005_1986"
    INDEX 01 01:14:14
  TRACK 60 AUDIO
    TITLE "0:"
    INDEX 01 01:18:56
